<?xml version="1.0" standalone="no"?>
<!DOCTYPE svg PUBLIC "-//W3C//DTD SVG 20010904//EN"
 "http://www.w3.org/TR/2001/REC-SVG-20010904/DTD/svg10.dtd">
<svg version="1.0" xmlns="http://www.w3.org/2000/svg"
 width="700.000000pt" height="700.000000pt" viewBox="0 0 700.000000 700.000000"
 preserveAspectRatio="xMidYMid meet">
<metadata>
Created by potrace 1.14, written by Peter Selinger 2001-2017
</metadata>
<g transform="translate(0.000000,700.000000) scale(0.100000,-0.100000)"
fill="#000000" stroke="none">
<path d="M765 6994 c-11 -2 -45 -9 -75 -15 -306 -59 -558 -295 -657 -616 l-27
-88 -2 -570 -2 -570 23 -91 c79 -301 285 -526 572 -623 63 -21 88 -27 180 -39
32 -4 1271 -7 2753 -7 2855 1 2735 -1 2875 47 303 103 522 357 581 673 10 53
12 202 10 620 -1 303 -5 562 -9 576 -4 15 -17 58 -28 95 -87 285 -310 498
-614 588 l-70 20 -2745 2 c-1510 1 -2754 0 -2765 -2z"/>
<path d="M779 2619 c-98 -15 -122 -20 -181 -40 -240 -81 -439 -267 -534 -500
-60 -146 -63 -193 -63 -774 1 -393 4 -546 14 -591 72 -343 301 -588 640 -686
l80 -23 2770 0 2770 0 88 28 c238 74 411 213 529 423 34 59 73 156 82 204 3
14 9 48 15 75 6 30 10 263 10 575 0 574 -3 614 -59 757 -104 270 -360 487
-635 539 -11 2 -33 7 -50 11 -38 9 -5415 10 -5476 2z"/>
</g>
</svg>
